<svg version="1" xmlns="http://www.w3.org/2000/svg" width="346.667" height="346.667" viewBox="0 0 260.000000 260.000000"><path d="M0 130v130h260V0H0v130zm156.7-68.3c2.2 5.4 13.8 33.2 25.8 61.8 12 28.6 22.8 54.5 24 57.5 1.3 3 3.7 8.8 5.4 12.8 2.1 5.1 2.7 7.4 1.8 7.7-2 .6-42.7 3.9-43 3.4-.2-.2-2.7-6.7-5.6-14.4-2.9-7.7-5.7-14.8-6.2-15.7-.8-1.5-3.6-1.7-27.8-1.8-14.7 0-27.5.2-28.4.6-.9.3-2.8 3.8-4.3 7.7-1.5 4-4 10.3-5.5 14.2l-2.8 7-22.4.3-22.4.2 14.4-34.7c7.9-19.2 16.6-40.2 19.3-46.8 2.7-6.6 7.4-18.1 10.5-25.5 3.2-7.4 8.5-20.4 11.9-28.7l6.1-15.3h45.3l3.9 9.7z"/><path d="M123.6 116.3c-3.2 8.4-6.7 17.3-7.7 19.9L114 141h31.7l-7.4-18.3c-4.1-10-7.8-19-8.1-19.9-.5-1.1-2.7 3.4-6.6 13.5z"/></svg>